<svg xmlns="http://www.w3.org/2000/svg" xmlns:xlink="http://www.w3.org/1999/xlink" width="1080" zoomAndPan="magnify" viewBox="0 0 810 1439.999935" height="1920" preserveAspectRatio="xMidYMid meet" version="1.0"><defs><g/><clipPath id="c186591370"><path d="M 81 396 L 729 396 L 729 1044 L 81 1044 Z M 81 396 " clip-rule="nonzero"/></clipPath><clipPath id="80bcd10511"><path d="M 405 396 C 226.058594 396 81 541.058594 81 720 C 81 898.941406 226.058594 1044 405 1044 C 583.941406 1044 729 898.941406 729 720 C 729 541.058594 583.941406 396 405 396 Z M 405 396 " clip-rule="nonzero"/></clipPath><clipPath id="cb07bad615"><path d="M 158.132812 617 L 640 617 L 640 686 L 158.132812 686 Z M 158.132812 617 " clip-rule="nonzero"/></clipPath><clipPath id="2240c8db3d"><path d="M 483 677 L 645.574219 677 L 645.574219 715 L 483 715 Z M 483 677 " clip-rule="nonzero"/></clipPath></defs><rect x="-81" width="972" fill="#ffffff" y="-143.999994" height="1727.999922" fill-opacity="1"/><rect x="-81" width="972" fill="#ffffff" y="-143.999994" height="1727.999922" fill-opacity="1"/><g clip-path="url(#c186591370)"><g clip-path="url(#80bcd10511)"><path fill="#000000" d="M 81 396 L 729 396 L 729 1044 L 81 1044 Z M 81 396 " fill-opacity="1" fill-rule="nonzero"/></g></g><g clip-path="url(#cb07bad615)"><path fill="#f7f8fd" d="M 600.761719 666.136719 C 594.761719 665.007812 588.820312 663.519531 582.96875 661.703125 C 577.128906 659.863281 571.351562 657.761719 565.640625 655.445312 C 559.933594 653.117188 554.257812 650.632812 548.574219 648.046875 L 531.382812 640.183594 C 525.582031 637.550781 519.675781 634.957031 513.59375 632.5 C 512.0625 631.894531 510.550781 631.269531 508.992188 630.691406 L 506.671875 629.808594 L 504.320312 628.953125 C 502.765625 628.371094 501.15625 627.84375 499.578125 627.289062 C 498.78125 627.019531 497.972656 626.761719 497.167969 626.5 C 496.363281 626.242188 495.566406 625.96875 494.746094 625.726562 C 493.117188 625.234375 491.492188 624.730469 489.832031 624.28125 C 489.003906 624.050781 488.183594 623.8125 487.347656 623.59375 L 484.835938 622.964844 C 483.164062 622.550781 481.496094 622.113281 479.792969 621.769531 L 477.253906 621.222656 C 476.40625 621.046875 475.5625 620.851562 474.703125 620.707031 L 469.574219 619.785156 L 464.402344 619.015625 C 463.972656 618.957031 463.542969 618.882812 463.109375 618.832031 L 461.8125 618.679688 L 459.214844 618.375 C 458.34375 618.28125 457.484375 618.15625 456.613281 618.085938 L 454.007812 617.855469 C 447.058594 617.246094 440.078125 616.96875 433.128906 617.035156 C 426.183594 617.105469 419.265625 617.449219 412.417969 618.066406 C 398.710938 619.296875 385.304688 621.617188 372.269531 624.617188 C 359.25 627.65625 346.589844 631.394531 334.335938 635.691406 C 328.210938 637.84375 322.160156 640.101562 316.234375 642.515625 C 310.296875 644.914062 304.453125 647.433594 298.710938 650.066406 C 311.003906 645.957031 323.390625 642.070312 336.003906 638.738281 C 348.589844 635.359375 361.382812 632.507812 374.300781 630.285156 C 380.761719 629.175781 387.269531 628.28125 393.78125 627.550781 C 397.039062 627.167969 400.304688 626.886719 403.566406 626.601562 L 408.46875 626.265625 C 410.101562 626.160156 411.738281 626.109375 413.371094 626.023438 C 419.902344 625.753906 426.429688 625.691406 432.917969 625.914062 L 437.773438 626.140625 C 439.390625 626.238281 441 626.367188 442.609375 626.480469 L 443.816406 626.570312 L 445.015625 626.683594 L 447.417969 626.917969 C 448.214844 627 449.019531 627.0625 449.816406 627.160156 L 452.199219 627.460938 L 454.582031 627.757812 C 455.378906 627.847656 456.160156 627.996094 456.949219 628.109375 L 460.488281 628.660156 C 460.882812 628.722656 461.269531 628.800781 461.660156 628.871094 L 466.324219 629.746094 L 470.933594 630.757812 C 471.707031 630.914062 472.457031 631.121094 473.21875 631.308594 L 475.492188 631.878906 C 477.015625 632.234375 478.496094 632.683594 479.988281 633.109375 L 482.226562 633.746094 C 482.96875 633.964844 483.699219 634.207031 484.433594 634.4375 C 485.910156 634.886719 487.359375 635.398438 488.820312 635.890625 C 500.472656 639.917969 511.609375 645.070312 522.78125 650.480469 C 533.957031 655.894531 545.203125 661.597656 557.273438 666.742188 C 559.578125 667.722656 561.917969 668.683594 564.289062 669.613281 C 557.144531 670.164062 549.972656 670.578125 542.78125 670.878906 L 535.960938 671.132812 L 529.125 671.296875 C 526.847656 671.363281 524.5625 671.363281 522.28125 671.394531 L 518.859375 671.433594 C 517.714844 671.445312 516.574219 671.433594 515.433594 671.433594 C 506.296875 671.472656 497.140625 671.28125 487.980469 671.007812 C 478.820312 670.742188 469.648438 670.316406 460.46875 669.808594 C 451.292969 669.296875 442.109375 668.710938 432.917969 668.03125 C 414.539062 666.71875 396.132812 665.125 377.675781 663.570312 C 359.21875 662.015625 340.703125 660.460938 322.117188 659.203125 L 315.144531 658.742188 C 312.820312 658.585938 310.492188 658.441406 308.164062 658.300781 C 303.503906 658.03125 298.828125 657.792969 294.152344 657.578125 C 291.8125 657.464844 289.464844 657.386719 287.125 657.289062 L 280.082031 657.070312 C 277.730469 657.027344 275.382812 656.976562 273.027344 656.953125 L 269.496094 656.925781 C 268.320312 656.914062 267.144531 656.910156 265.964844 656.921875 C 263.609375 656.9375 261.253906 656.933594 258.894531 656.992188 L 255.359375 657.058594 C 254.183594 657.085938 253.003906 657.132812 251.824219 657.171875 L 248.292969 657.308594 L 244.757812 657.496094 C 242.40625 657.601562 240.054688 657.785156 237.703125 657.949219 C 228.304688 658.625 218.957031 659.765625 209.765625 661.375 C 200.574219 663.019531 191.570312 665.179688 182.925781 667.9375 C 174.28125 670.6875 165.980469 674.007812 158.316406 677.972656 C 174.882812 671.59375 192.75 667.605469 210.855469 665.628906 C 228.996094 663.609375 247.378906 663.570312 265.671875 664.402344 C 266.8125 664.449219 267.957031 664.507812 269.105469 664.574219 L 272.535156 664.769531 C 274.824219 664.902344 277.109375 665.078125 279.394531 665.222656 L 286.257812 665.734375 C 288.546875 665.925781 290.832031 666.101562 293.121094 666.308594 C 297.695312 666.71875 302.269531 667.148438 306.851562 667.617188 C 311.429688 668.058594 316.015625 668.542969 320.601562 669.019531 C 338.929688 670.972656 357.265625 673.078125 375.660156 675.125 C 412.4375 679.210938 449.527344 683.046875 487.144531 684.503906 C 505.945312 685.242188 524.863281 685.339844 543.789062 684.5625 C 553.25 684.144531 562.714844 683.5625 572.148438 682.671875 C 581.578125 681.777344 590.976562 680.632812 600.316406 679.234375 L 639.304688 673.378906 Z M 600.761719 666.136719 " fill-opacity="1" fill-rule="nonzero"/></g><g clip-path="url(#2240c8db3d)"><path fill="#ff0000" d="M 497.308594 706.03125 C 511.839844 709.207031 526.570312 711.550781 541.382812 712.90625 C 559.960938 714.609375 578.882812 714.851562 597.347656 711.871094 C 606.324219 710.421875 615.21875 708.175781 623.632812 704.691406 C 630.53125 701.835938 643.597656 697.191406 644.839844 688.609375 C 645.28125 685.570312 645.398438 680.96875 641.574219 678.597656 C 636.648438 675.539062 630.035156 678.621094 625.421875 680.375 C 619.914062 682.46875 614.484375 684.695312 608.535156 686.324219 C 601.105469 688.359375 593.421875 690.050781 585.65625 691.554688 C 576.90625 693.25 567.996094 694.769531 558.996094 695.90625 C 563.4375 696.644531 570.816406 697.640625 574.808594 698.136719 C 579.578125 698.730469 584.378906 699.253906 589.203125 699.671875 C 594.273438 700.109375 599.515625 700.4375 604.757812 700.613281 C 581.414062 705.296875 541.652344 709.40625 483.839844 702.765625 C 488.378906 703.933594 492.921875 705.070312 497.308594 706.03125 Z M 497.308594 706.03125 " fill-opacity="1" fill-rule="nonzero"/></g><g fill="#ff0000" fill-opacity="1"><g transform="translate(147.808681, 782.7308)"><g><path d="M 41.230469 -44.878906 L 17.808594 -44.878906 C 15.414062 -44.878906 13.34375 -44.550781 11.65625 -43.953125 C 9.96875 -43.300781 8.496094 -42.265625 7.460938 -40.902344 C 6.371094 -39.488281 5.554688 -37.746094 5.066406 -35.566406 C 4.574219 -33.441406 4.355469 -30.828125 4.355469 -27.832031 L 4.355469 -17.046875 C 4.355469 -13.996094 4.574219 -11.382812 5.066406 -9.203125 C 5.554688 -7.082031 6.371094 -5.28125 7.460938 -3.867188 C 8.550781 -2.503906 9.96875 -1.46875 11.65625 -0.871094 C 13.34375 -0.273438 15.414062 0.0546875 17.808594 0.0546875 L 36.4375 0.0546875 C 38.453125 0.0546875 40.03125 -0.761719 41.121094 -2.34375 C 42.15625 -3.867188 42.699219 -6.425781 42.699219 -10.074219 L 42.699219 -24.671875 C 42.699219 -26.742188 41.503906 -27.070312 40.792969 -27.070312 L 21.515625 -27.070312 C 21.078125 -27.070312 19.988281 -26.851562 19.988281 -25.109375 L 19.988281 -20.96875 C 19.988281 -19.171875 21.078125 -19.007812 21.515625 -19.007812 L 35.074219 -19.007812 C 35.074219 -19.007812 35.128906 -11.382812 35.128906 -11.382812 C 35.128906 -9.695312 34.859375 -8.988281 34.640625 -8.660156 C 34.367188 -8.222656 33.933594 -8.0625 33.332031 -8.0625 L 18.082031 -8.0625 C 16.9375 -8.0625 15.957031 -8.167969 15.25 -8.441406 C 14.542969 -8.660156 14.050781 -9.042969 13.617188 -9.640625 C 13.234375 -10.183594 12.910156 -11 12.746094 -12.035156 C 12.527344 -13.125 12.417969 -14.488281 12.417969 -16.121094 L 12.417969 -28.757812 C 12.417969 -30.390625 12.527344 -31.753906 12.746094 -32.84375 C 12.910156 -33.824219 13.234375 -34.640625 13.617188 -35.238281 C 14.050781 -35.785156 14.542969 -36.164062 15.25 -36.4375 C 15.957031 -36.65625 16.9375 -36.816406 18.082031 -36.816406 L 41.230469 -36.816406 C 41.664062 -36.816406 42.753906 -36.980469 42.753906 -38.726562 L 42.753906 -42.972656 C 42.753906 -44.660156 41.664062 -44.878906 41.230469 -44.878906 Z M 41.230469 -44.878906 "/></g></g></g><g fill="#ff0000" fill-opacity="1"><g transform="translate(194.91364, 782.7308)"><g><path d="M 41.992188 -44.878906 L 36.980469 -44.878906 C 36.492188 -44.878906 35.457031 -44.714844 35.457031 -43.027344 L 35.457031 -16.175781 C 35.457031 -14.542969 35.347656 -13.125 35.183594 -12.089844 C 35.019531 -11.054688 34.695312 -10.238281 34.3125 -9.640625 C 33.878906 -9.09375 33.386719 -8.714844 32.679688 -8.441406 C 31.972656 -8.222656 30.992188 -8.0625 29.847656 -8.0625 L 18.082031 -8.0625 C 16.9375 -8.0625 15.957031 -8.222656 15.25 -8.441406 C 14.542969 -8.714844 14.050781 -9.09375 13.617188 -9.640625 C 13.234375 -10.238281 12.910156 -11.054688 12.691406 -12.089844 C 12.527344 -13.125 12.417969 -14.542969 12.417969 -16.175781 L 12.417969 -43.027344 C 12.417969 -44.714844 11.382812 -44.878906 10.894531 -44.878906 L 5.9375 -44.878906 C 5.445312 -44.878906 4.355469 -44.714844 4.355469 -43.027344 L 4.355469 -17.046875 C 4.355469 -13.996094 4.574219 -11.382812 5.066406 -9.257812 C 5.554688 -7.082031 6.371094 -5.28125 7.460938 -3.921875 C 8.496094 -2.503906 9.96875 -1.523438 11.65625 -0.871094 C 13.34375 -0.273438 15.414062 0 17.808594 0 L 30.066406 0 C 32.460938 0 34.53125 -0.273438 36.21875 -0.871094 C 37.960938 -1.523438 39.378906 -2.503906 40.46875 -3.921875 C 41.558594 -5.28125 42.320312 -7.082031 42.808594 -9.257812 C 43.300781 -11.382812 43.515625 -13.996094 43.515625 -17.046875 L 43.515625 -43.027344 C 43.515625 -44.714844 42.484375 -44.878906 41.992188 -44.878906 Z M 41.992188 -44.878906 "/></g></g></g><g fill="#ff0000" fill-opacity="1"><g transform="translate(242.781005, 782.7308)"><g><path d="M 41.503906 -31.863281 C 41.503906 -31.808594 41.503906 -31.753906 41.503906 -31.699219 C 41.503906 -31.644531 41.503906 -31.589844 41.503906 -31.535156 Z M 42.539062 -2.34375 L 33.003906 -18.679688 C 35.675781 -19.007812 37.746094 -20.152344 39.105469 -22.003906 C 40.632812 -24.238281 41.449219 -27.449219 41.503906 -31.699219 C 41.449219 -35.945312 40.632812 -39.160156 39.105469 -41.394531 C 37.472656 -43.734375 34.75 -44.878906 31.046875 -44.878906 L 5.9375 -44.878906 C 5.445312 -44.878906 4.355469 -44.714844 4.355469 -42.972656 L 4.355469 -38.671875 C 4.355469 -36.980469 5.445312 -36.816406 5.9375 -36.816406 L 29.628906 -36.816406 C 31.046875 -36.816406 31.972656 -36.4375 32.515625 -35.621094 C 33.113281 -34.804688 33.386719 -33.496094 33.386719 -31.699219 C 33.386719 -29.902344 33.113281 -28.59375 32.515625 -27.777344 C 31.972656 -26.960938 31.046875 -26.578125 29.628906 -26.578125 L 5.9375 -26.578125 C 5.445312 -26.578125 4.355469 -26.414062 4.355469 -24.726562 L 4.355469 -1.851562 C 4.355469 -0.164062 5.445312 0.0546875 5.9375 0.0546875 L 10.894531 0.0546875 C 11.382812 0.0546875 12.417969 -0.164062 12.417969 -1.851562 L 12.417969 -18.519531 L 23.910156 -18.519531 L 33.769531 -1.035156 C 33.984375 -0.707031 34.148438 -0.4375 34.367188 -0.273438 C 34.640625 -0.0546875 35.019531 0.0546875 35.511719 0.0546875 L 41.503906 0.0546875 C 42.15625 0.0546875 42.644531 -0.382812 42.753906 -1.035156 C 42.808594 -1.578125 42.753906 -2.015625 42.539062 -2.34375 Z M 42.539062 -2.34375 "/></g></g></g><g fill="#ff0000" fill-opacity="1"><g transform="translate(289.940421, 782.7308)"><g><path d="M 41.992188 -44.878906 L 36.980469 -44.878906 C 36.492188 -44.878906 35.457031 -44.714844 35.457031 -43.027344 L 35.457031 -16.175781 C 35.457031 -14.542969 35.347656 -13.125 35.183594 -12.089844 C 35.019531 -11.054688 34.695312 -10.238281 34.3125 -9.640625 C 33.878906 -9.09375 33.386719 -8.714844 32.679688 -8.441406 C 31.972656 -8.222656 30.992188 -8.0625 29.847656 -8.0625 L 18.082031 -8.0625 C 16.9375 -8.0625 15.957031 -8.222656 15.25 -8.441406 C 14.542969 -8.714844 14.050781 -9.09375 13.617188 -9.640625 C 13.234375 -10.238281 12.910156 -11.054688 12.691406 -12.089844 C 12.527344 -13.125 12.417969 -14.542969 12.417969 -16.175781 L 12.417969 -43.027344 C 12.417969 -44.714844 11.382812 -44.878906 10.894531 -44.878906 L 5.9375 -44.878906 C 5.445312 -44.878906 4.355469 -44.714844 4.355469 -43.027344 L 4.355469 -17.046875 C 4.355469 -13.996094 4.574219 -11.382812 5.066406 -9.257812 C 5.554688 -7.082031 6.371094 -5.28125 7.460938 -3.921875 C 8.496094 -2.503906 9.96875 -1.523438 11.65625 -0.871094 C 13.34375 -0.273438 15.414062 0 17.808594 0 L 30.066406 0 C 32.460938 0 34.53125 -0.273438 36.21875 -0.871094 C 37.960938 -1.523438 39.378906 -2.503906 40.46875 -3.921875 C 41.558594 -5.28125 42.320312 -7.082031 42.808594 -9.257812 C 43.300781 -11.382812 43.515625 -13.996094 43.515625 -17.046875 L 43.515625 -43.027344 C 43.515625 -44.714844 42.484375 -44.878906 41.992188 -44.878906 Z M 41.992188 -44.878906 "/></g></g></g><g fill="#ff0000" fill-opacity="1"><g transform="translate(337.80778, 782.7308)"><g/></g></g><g fill="#ffffff" fill-opacity="1"><g transform="translate(365.80085, 782.7308)"><g><path d="M 49.835938 -44.878906 L 44.933594 -44.878906 C 44.171875 -44.878906 43.570312 -44.824219 43.027344 -44.660156 C 42.484375 -44.496094 41.992188 -44.226562 41.558594 -43.84375 C 41.175781 -43.410156 40.792969 -42.917969 40.46875 -42.265625 C 40.140625 -41.609375 39.867188 -40.792969 39.542969 -39.757812 L 29.902344 -15.6875 C 29.847656 -15.46875 29.792969 -15.46875 29.738281 -15.46875 L 29.191406 -15.46875 C 29.191406 -15.46875 29.085938 -15.46875 29.03125 -15.6875 L 19.445312 -39.757812 C 19.117188 -40.792969 18.789062 -41.609375 18.519531 -42.265625 C 18.191406 -42.917969 17.808594 -43.410156 17.429688 -43.84375 C 16.992188 -44.226562 16.449219 -44.496094 15.902344 -44.660156 C 15.359375 -44.824219 14.707031 -44.878906 13.996094 -44.878906 L 8.988281 -44.878906 C 7.136719 -44.878906 5.882812 -44.28125 5.230469 -43.136719 C 4.628906 -42.101562 4.355469 -40.359375 4.355469 -37.851562 L 4.355469 -1.851562 C 4.355469 -0.164062 5.445312 0.0546875 5.9375 0.0546875 L 10.621094 0.0546875 C 11.109375 0.0546875 12.144531 -0.164062 12.144531 -1.851562 L 12.144531 -34.585938 C 12.144531 -34.640625 12.144531 -34.695312 12.144531 -34.695312 L 12.417969 -34.695312 C 12.472656 -34.695312 12.527344 -34.695312 12.582031 -34.53125 L 21.894531 -11.492188 C 22.277344 -10.347656 22.65625 -9.367188 23.039062 -8.550781 C 23.472656 -7.734375 23.910156 -7.082031 24.347656 -6.535156 C 24.890625 -5.992188 25.433594 -5.554688 26.089844 -5.335938 C 26.742188 -5.121094 27.449219 -5.011719 28.265625 -5.011719 L 30.5 -5.011719 C 31.316406 -5.011719 32.078125 -5.121094 32.679688 -5.335938 C 33.332031 -5.554688 33.933594 -5.992188 34.421875 -6.535156 C 34.859375 -7.082031 35.347656 -7.734375 35.730469 -8.550781 C 36.109375 -9.367188 36.492188 -10.347656 36.871094 -11.492188 L 46.242188 -34.585938 C 46.242188 -34.695312 46.296875 -34.695312 46.351562 -34.695312 L 46.621094 -34.695312 C 46.621094 -34.695312 46.621094 -34.640625 46.621094 -34.585938 L 46.621094 -1.851562 C 46.621094 -0.164062 47.710938 0.0546875 48.148438 0.0546875 L 52.832031 0.0546875 C 53.320312 0.0546875 54.410156 -0.164062 54.410156 -1.851562 L 54.410156 -37.851562 C 54.410156 -40.359375 54.136719 -42.101562 53.539062 -43.136719 C 52.886719 -44.28125 51.632812 -44.878906 49.835938 -44.878906 Z M 49.835938 -44.878906 "/></g></g></g><g fill="#ffffff" fill-opacity="1"><g transform="translate(424.559624, 782.7308)"><g><path d="M 41.449219 -40.902344 C 40.359375 -42.265625 38.941406 -43.300781 37.199219 -43.953125 C 35.511719 -44.550781 33.441406 -44.878906 31.046875 -44.878906 L 17.753906 -44.878906 C 15.359375 -44.878906 13.34375 -44.550781 11.65625 -43.953125 C 9.914062 -43.300781 8.496094 -42.265625 7.40625 -40.902344 C 6.371094 -39.542969 5.554688 -37.746094 5.066406 -35.566406 C 4.574219 -33.441406 4.355469 -30.882812 4.355469 -27.832031 L 4.355469 -17.046875 C 4.355469 -13.996094 4.574219 -11.382812 5.066406 -9.257812 C 5.554688 -7.082031 6.371094 -5.28125 7.40625 -3.921875 C 8.496094 -2.503906 9.914062 -1.46875 11.65625 -0.871094 C 13.289062 -0.273438 15.359375 0.0546875 17.753906 0.0546875 L 31.046875 0.0546875 C 33.441406 0.0546875 35.511719 -0.273438 37.199219 -0.871094 C 38.941406 -1.46875 40.359375 -2.503906 41.449219 -3.867188 C 42.539062 -5.28125 43.300781 -7.082031 43.789062 -9.257812 C 44.226562 -11.382812 44.496094 -13.996094 44.496094 -17.046875 L 44.496094 -27.832031 C 44.496094 -30.828125 44.226562 -33.441406 43.789062 -35.566406 C 43.300781 -37.746094 42.539062 -39.542969 41.449219 -40.902344 Z M 36.382812 -28.757812 L 36.382812 -16.066406 C 36.382812 -14.488281 36.328125 -13.125 36.109375 -12.035156 C 35.945312 -11.054688 35.621094 -10.183594 35.183594 -9.640625 C 34.804688 -9.042969 34.257812 -8.660156 33.550781 -8.441406 C 32.84375 -8.167969 31.917969 -8.0625 30.773438 -8.0625 L 18.027344 -8.0625 C 16.882812 -8.0625 15.957031 -8.167969 15.25 -8.441406 C 14.542969 -8.660156 13.996094 -9.042969 13.617188 -9.640625 C 13.179688 -10.183594 12.910156 -11.054688 12.691406 -12.035156 C 12.527344 -13.125 12.417969 -14.488281 12.417969 -16.066406 L 12.417969 -28.757812 C 12.417969 -30.335938 12.527344 -31.699219 12.691406 -32.789062 C 12.910156 -33.824219 13.179688 -34.640625 13.617188 -35.238281 C 13.996094 -35.785156 14.542969 -36.164062 15.25 -36.4375 C 15.957031 -36.65625 16.882812 -36.816406 18.027344 -36.816406 L 30.773438 -36.816406 C 31.917969 -36.816406 32.84375 -36.65625 33.550781 -36.4375 C 34.257812 -36.164062 34.804688 -35.785156 35.183594 -35.238281 C 35.621094 -34.640625 35.945312 -33.824219 36.109375 -32.789062 C 36.328125 -31.699219 36.382812 -30.335938 36.382812 -28.757812 Z M 36.382812 -28.757812 "/></g></g></g><g fill="#ffffff" fill-opacity="1"><g transform="translate(473.407209, 782.7308)"><g><path d="M 41.992188 -44.878906 L 5.9375 -44.878906 C 5.445312 -44.878906 4.355469 -44.714844 4.355469 -43.027344 L 4.355469 -38.777344 C 4.355469 -36.980469 5.445312 -36.816406 5.9375 -36.816406 L 19.933594 -36.816406 L 19.933594 -1.851562 C 19.933594 -0.164062 21.023438 0 21.460938 0 L 26.46875 0 C 26.960938 0 27.996094 -0.164062 27.996094 -1.851562 L 27.996094 -36.816406 L 41.992188 -36.816406 C 42.484375 -36.816406 43.570312 -36.980469 43.570312 -38.777344 L 43.570312 -43.027344 C 43.570312 -44.714844 42.484375 -44.878906 41.992188 -44.878906 Z M 41.992188 -44.878906 "/></g></g></g><g fill="#ffffff" fill-opacity="1"><g transform="translate(521.329019, 782.7308)"><g><path d="M 41.449219 -40.902344 C 40.359375 -42.265625 38.941406 -43.300781 37.199219 -43.953125 C 35.511719 -44.550781 33.441406 -44.878906 31.046875 -44.878906 L 17.753906 -44.878906 C 15.359375 -44.878906 13.34375 -44.550781 11.65625 -43.953125 C 9.914062 -43.300781 8.496094 -42.265625 7.40625 -40.902344 C 6.371094 -39.542969 5.554688 -37.746094 5.066406 -35.566406 C 4.574219 -33.441406 4.355469 -30.882812 4.355469 -27.832031 L 4.355469 -17.046875 C 4.355469 -13.996094 4.574219 -11.382812 5.066406 -9.257812 C 5.554688 -7.082031 6.371094 -5.28125 7.40625 -3.921875 C 8.496094 -2.503906 9.914062 -1.46875 11.65625 -0.871094 C 13.289062 -0.273438 15.359375 0.0546875 17.753906 0.0546875 L 31.046875 0.0546875 C 33.441406 0.0546875 35.511719 -0.273438 37.199219 -0.871094 C 38.941406 -1.46875 40.359375 -2.503906 41.449219 -3.867188 C 42.539062 -5.28125 43.300781 -7.082031 43.789062 -9.257812 C 44.226562 -11.382812 44.496094 -13.996094 44.496094 -17.046875 L 44.496094 -27.832031 C 44.496094 -30.828125 44.226562 -33.441406 43.789062 -35.566406 C 43.300781 -37.746094 42.539062 -39.542969 41.449219 -40.902344 Z M 36.382812 -28.757812 L 36.382812 -16.066406 C 36.382812 -14.488281 36.328125 -13.125 36.109375 -12.035156 C 35.945312 -11.054688 35.621094 -10.183594 35.183594 -9.640625 C 34.804688 -9.042969 34.257812 -8.660156 33.550781 -8.441406 C 32.84375 -8.167969 31.917969 -8.0625 30.773438 -8.0625 L 18.027344 -8.0625 C 16.882812 -8.0625 15.957031 -8.167969 15.25 -8.441406 C 14.542969 -8.660156 13.996094 -9.042969 13.617188 -9.640625 C 13.179688 -10.183594 12.910156 -11.054688 12.691406 -12.035156 C 12.527344 -13.125 12.417969 -14.488281 12.417969 -16.066406 L 12.417969 -28.757812 C 12.417969 -30.335938 12.527344 -31.699219 12.691406 -32.789062 C 12.910156 -33.824219 13.179688 -34.640625 13.617188 -35.238281 C 13.996094 -35.785156 14.542969 -36.164062 15.25 -36.4375 C 15.957031 -36.65625 16.882812 -36.816406 18.027344 -36.816406 L 30.773438 -36.816406 C 31.917969 -36.816406 32.84375 -36.65625 33.550781 -36.4375 C 34.257812 -36.164062 34.804688 -35.785156 35.183594 -35.238281 C 35.621094 -34.640625 35.945312 -33.824219 36.109375 -32.789062 C 36.328125 -31.699219 36.382812 -30.335938 36.382812 -28.757812 Z M 36.382812 -28.757812 "/></g></g></g><g fill="#ffffff" fill-opacity="1"><g transform="translate(570.17661, 782.7308)"><g><path d="M 41.503906 -31.863281 C 41.503906 -31.808594 41.503906 -31.753906 41.503906 -31.699219 C 41.503906 -31.644531 41.503906 -31.589844 41.503906 -31.535156 Z M 42.539062 -2.34375 L 33.003906 -18.679688 C 35.675781 -19.007812 37.746094 -20.152344 39.105469 -22.003906 C 40.632812 -24.238281 41.449219 -27.449219 41.503906 -31.699219 C 41.449219 -35.945312 40.632812 -39.160156 39.105469 -41.394531 C 37.472656 -43.734375 34.75 -44.878906 31.046875 -44.878906 L 5.9375 -44.878906 C 5.445312 -44.878906 4.355469 -44.714844 4.355469 -42.972656 L 4.355469 -38.671875 C 4.355469 -36.980469 5.445312 -36.816406 5.9375 -36.816406 L 29.628906 -36.816406 C 31.046875 -36.816406 31.972656 -36.4375 32.515625 -35.621094 C 33.113281 -34.804688 33.386719 -33.496094 33.386719 -31.699219 C 33.386719 -29.902344 33.113281 -28.59375 32.515625 -27.777344 C 31.972656 -26.960938 31.046875 -26.578125 29.628906 -26.578125 L 5.9375 -26.578125 C 5.445312 -26.578125 4.355469 -26.414062 4.355469 -24.726562 L 4.355469 -1.851562 C 4.355469 -0.164062 5.445312 0.0546875 5.9375 0.0546875 L 10.894531 0.0546875 C 11.382812 0.0546875 12.417969 -0.164062 12.417969 -1.851562 L 12.417969 -18.519531 L 23.910156 -18.519531 L 33.769531 -1.035156 C 33.984375 -0.707031 34.148438 -0.4375 34.367188 -0.273438 C 34.640625 -0.0546875 35.019531 0.0546875 35.511719 0.0546875 L 41.503906 0.0546875 C 42.15625 0.0546875 42.644531 -0.382812 42.753906 -1.035156 C 42.808594 -1.578125 42.753906 -2.015625 42.539062 -2.34375 Z M 42.539062 -2.34375 "/></g></g></g><g fill="#ffffff" fill-opacity="1"><g transform="translate(617.336037, 782.7308)"><g><path d="M 30.664062 -26.796875 L 14.324219 -26.796875 C 13.507812 -26.796875 12.472656 -27.125 12.472656 -29.792969 L 12.472656 -33.824219 C 12.472656 -34.804688 12.636719 -35.566406 12.910156 -36.109375 C 13.125 -36.4375 13.453125 -36.816406 14.378906 -36.816406 L 36.546875 -36.816406 C 36.980469 -36.816406 38.070312 -36.980469 38.070312 -38.671875 L 38.070312 -43.027344 C 38.070312 -44.714844 36.980469 -44.878906 36.546875 -44.878906 L 13.070312 -44.878906 C 10.074219 -44.878906 7.898438 -43.898438 6.480469 -41.882812 C 5.066406 -39.921875 4.355469 -37.308594 4.355469 -34.148438 L 4.355469 -30.011719 C 4.355469 -26.253906 5.121094 -23.203125 6.480469 -21.296875 C 8.167969 -19.0625 10.675781 -18.734375 12.960938 -18.734375 L 29.300781 -18.734375 C 30.121094 -18.734375 31.207031 -18.410156 31.207031 -15.742188 L 31.207031 -11.054688 C 31.207031 -10.074219 31.046875 -9.3125 30.71875 -8.769531 C 30.5 -8.441406 30.171875 -8.0625 29.246094 -8.0625 L 5.992188 -8.0625 C 5.5 -8.0625 4.410156 -7.898438 4.410156 -6.210938 L 4.410156 -1.851562 C 4.410156 -0.164062 5.5 0 5.992188 0 L 30.554688 0 C 33.550781 0 35.785156 -1.035156 37.199219 -3.050781 C 38.5625 -5.011719 39.269531 -7.570312 39.269531 -10.730469 L 39.269531 -15.523438 C 39.269531 -19.0625 38.5625 -21.839844 37.144531 -23.800781 C 35.675781 -25.761719 33.496094 -26.796875 30.664062 -26.796875 Z M 30.664062 -26.796875 "/></g></g></g></svg>